<svg width="142.253174" height="140.000000" viewBox="0 0 142.253 140" fill="none" xmlns="http://www.w3.org/2000/svg" xmlns:xlink="http://www.w3.org/1999/xlink">
	<desc>
			Created with Pixso.
	</desc>
	<defs>
		<linearGradient x1="62.158886" y1="72.016914" x2="30.459055" y2="75.816002" id="paint_linear_9_899_0" gradientUnits="userSpaceOnUse">
			<stop stop-color="#FE9F30"/>
			<stop offset="1.000000" stop-color="#E05C51"/>
		</linearGradient>
	</defs>
	<path id="Vector" d="M55.68 111.9L57.61 111.9L57.81 124.74L55.81 124.81L55.68 111.9Z" fill="#FFFFFF" fill-opacity="1.000000" fill-rule="nonzero"/>
	<path id="Vector" d="M98.43 112.61C99.13 112.61 106.29 112.61 106.42 112.74L106.4 114.01L103.49 114.01L103.53 122.84L103.53 125.69L101.4 125.68L101.4 114.02L98.45 113.99L98.43 112.61Z" fill="#FFFFFF" fill-opacity="1.000000" fill-rule="nonzero"/>
	<path id="Vector" d="M87.85 111.91L93.74 112.18L93.73 114.14L89.63 114.04L89.61 116.54C89.61 116.91 89.56 117.37 89.67 117.73L93.04 117.9L93.03 119.85L89.63 119.69L89.63 121.8L89.64 123.24L93.79 123.41L93.8 125.38L87.81 125.1L87.85 111.91Z" fill="#FFFFFF" fill-opacity="1.000000" fill-rule="nonzero"/>
	<path id="Vector" d="M64.81 111.69L67.74 111.7C68.17 111.71 68.72 111.65 69.06 111.92C70.18 112.8 70.24 114.92 70.39 116.21L68.19 116.22L68.13 113.77L65.45 113.71L65.51 122.75C66.27 122.79 67.21 122.83 67.95 122.67L68.05 122.34L68.17 120.44L70.43 120.43C70.38 121.3 70.28 122.56 69.89 123.34C69.65 123.79 69.25 124.19 68.9 124.56L65.91 124.59C65.6 124.59 65.13 124.65 64.85 124.55C64.64 124.48 64.39 124.27 64.23 124.12C64.05 123.95 63.69 123.54 63.6 123.31C63.52 123.1 63.55 122.73 63.55 122.51L63.56 120.52L63.51 112.96C63.91 112.49 64.34 112.1 64.81 111.69Z" fill="#FFFFFF" fill-opacity="1.000000" fill-rule="nonzero"/>
	<path id="Vector" d="M75.79 111.62L77.59 111.64L77.6 117.68L80.96 111.73C81.62 111.62 82.46 111.76 83.14 111.79L79.58 117.53L82.01 122.65L83.15 124.94L80.93 124.9C80.63 124.52 80.48 123.86 80.27 123.41L78.27 119.06L78.2 119.09C78.07 119.3 77.64 119.79 77.6 119.99C77.52 120.38 77.6 120.99 77.6 121.4L77.6 124.89L75.78 124.88L75.79 111.62Z" fill="#FFFFFF" fill-opacity="1.000000" fill-rule="nonzero"/>
	<path id="Vector" d="M32.74 112.94L35.2 112.85C35.92 112.86 36.43 113.01 36.94 113.55C37.81 114.46 37.61 116.02 37.61 117.19L35.41 117.3L35.33 115.02C34.84 114.85 33.53 114.86 33.05 115.08C32.86 115.16 32.76 115.32 32.67 115.5L32.83 121.98C32.84 122.58 32.74 123.84 33.07 124.32C33.33 124.48 33.51 124.49 33.81 124.5C34.45 124.51 34.99 124.55 35.47 124.09C35.69 123.49 35.53 122.52 35.5 121.87C35.48 121.64 35.47 121.52 35.57 121.32L37.76 121.18C37.74 122.39 38.06 123.88 37.51 125C37.23 125.57 36.71 125.98 36.11 126.19C35.18 126.51 32.79 126.74 31.94 126.25C31.3 125.88 30.89 125.27 30.74 124.55C30.47 123.31 30.64 121.83 30.6 120.55C30.56 118.81 30.35 116.94 30.5 115.21C30.54 114.76 30.65 114.35 30.92 113.98C31.4 113.32 31.97 113.07 32.74 112.94Z" fill="#FFFFFF" fill-opacity="1.000000" fill-rule="nonzero"/>
	<path id="Vector" d="M46.89 112.24L48.18 112.14C48.53 112.46 49.1 112.86 49.37 113.23C49.52 113.44 49.53 114.12 49.55 114.39L49.86 117.8L48.63 119.12L50.72 125.05L48.57 125.21L47.12 120.64C46.75 120.31 45.69 120.48 45.17 120.49L45.23 125.48L43.03 125.55L42.62 112.57L46.89 112.24Z" fill="#FFFFFF" fill-opacity="1.000000" fill-rule="nonzero"/>
	<path id="Vector" d="M46.19 114.45L47.57 114.4C47.6 115.55 48.14 117.02 47.47 118.03C47.28 118.31 46.89 118.27 46.59 118.3L45.18 118.41L44.96 114.5L46.19 114.45Z" fill="#121F5E" fill-opacity="1.000000" fill-rule="nonzero"/>
	<path id="Vector" d="M93.13 48.94L94.74 46.68C103.98 53.07 110.08 63.1 112.11 74.08C113.57 82.03 112.58 90.04 109.85 97.6C109.33 99.02 108.74 100.39 108.07 101.74C107.79 102.31 107.53 102.92 107.19 103.45C106.39 102.75 105.71 101.9 105 101.09C103.62 99.51 102.26 97.87 100.72 96.43L100.73 94.91L100.35 93.82C99.73 92.49 98.51 91.52 97.14 91.06C95.82 90.61 94.13 90.49 92.87 91.13L92.75 91.19C91.82 90.02 91.13 88.5 90.48 87.15C93.24 86.23 95.9 84.99 98.49 83.67C100.35 82.72 102.23 81.73 103.99 80.61L109.53 76.9C109.12 74.09 108.54 71.19 107.62 68.5C106.03 63.84 103.35 59.23 100.12 55.52C98.01 53.08 95.62 50.97 93.13 48.94Z" fill="#121F5E" fill-opacity="1.000000" fill-rule="nonzero"/>
	<path id="Vector" d="M109.53 76.9C109.86 80.75 109.89 84.56 109.28 88.39C108.87 90.96 108.16 93.43 107.41 95.91C105.88 95.6 104.34 95.41 102.8 95.2C102.13 95.11 101.39 94.93 100.73 94.91L100.35 93.82C99.73 92.49 98.51 91.52 97.14 91.06C95.82 90.61 94.13 90.49 92.87 91.13L92.75 91.19C91.82 90.02 91.13 88.5 90.48 87.15C93.24 86.23 95.9 84.99 98.49 83.67C100.35 82.72 102.23 81.73 103.99 80.61L109.53 76.9Z" fill="#EC7A3B" fill-opacity="1.000000" fill-rule="nonzero"/>
	<path id="Vector" d="M90.48 87.15C89.15 84.62 88.42 81.67 87.39 78.99L88.77 77.24C91.59 73.33 91.32 67.71 88.69 63.77C88.29 63.17 87.84 62.61 87.34 62.08C87.06 61.78 86.4 61.28 86.22 60.95C85.97 60.48 85.9 59.41 85.79 58.86L84.15 50.05C85.34 50.87 87.24 51.87 88.69 51.93C90.46 51.99 91.94 50.05 93.13 48.94C95.62 50.97 98.01 53.08 100.12 55.51C103.35 59.23 106.03 63.84 107.62 68.5C108.54 71.19 109.12 74.09 109.53 76.9L103.99 80.61C102.23 81.73 100.35 82.72 98.49 83.67C95.9 84.99 93.24 86.23 90.48 87.15Z" fill="#FBCA57" fill-opacity="1.000000" fill-rule="nonzero"/>
	<path id="Vector" d="M69.24 127.74L83.15 128.03L96.94 128.93C104.73 129.71 112.41 131.02 120.03 132.81C124.39 133.84 128.75 134.97 132.99 136.38L139.54 138.75C140.44 139.13 141.41 139.49 142.25 140L135.09 138.57L120.36 136.27C104.76 134.19 89.07 133.58 73.35 133.43C53.77 133.37 34.1 134.52 14.72 137.33L3.94 139.11L0 139.92C1.41 139.09 3.12 138.51 4.66 137.95L10.38 135.93C20.96 132.53 32.07 130.26 43.12 129.09C51.81 128.17 60.51 127.87 69.24 127.74Z" fill="#FFFFFF" fill-opacity="1.000000" fill-rule="nonzero"/>
	<path id="Vector" d="M46.99 102.49L46.16 105.71L47.53 105.6L49.85 95.68C50.5 92.2 50.84 88.8 51.86 85.38C52.09 84.6 52.29 83.76 52.62 83.01C52.87 82.42 53.35 81.72 54 81.52C54.84 81.25 56 81.99 56.73 82.36C59.04 78.55 61.47 74.61 64.94 71.74C63.87 70.77 62.88 69.68 61.9 68.62C58.24 64.68 55.04 60.24 52.36 55.58L49.22 49.93C48.97 49.48 48.81 48.86 48.5 48.48C48.37 48.32 48.24 48.24 48.08 48.14C46.37 47.15 45.15 45.43 44.4 43.64C43.54 41.6 43.51 39.18 44.36 37.13C45.38 34.69 47.14 33.17 49.54 32.16C49.28 31.6 48.7 31.01 48.36 30.47C46.93 28.22 46.03 26.18 45.59 23.54C45.15 23.47 44.44 23.73 44 23.84L40.13 24.84C40.71 22.44 41.95 21.28 43.94 19.94C43.86 18.66 43.91 17.41 44.14 16.15C44.64 13.45 46.15 11.06 48.44 9.53C51.02 7.79 54.6 7.31 57.61 7.92C60.11 8.43 62.36 10.1 63.73 12.24C65.39 14.83 66.1 18.19 65.79 21.23C65.69 22.14 65.43 23.08 65.23 23.98C65.67 24.33 66.05 24.67 66.42 25.08L69.35 23.48C71.79 22.4 74.72 21.72 77.29 22.71C80.98 24.14 83.42 28.3 84.91 31.74C85.28 31.55 85.71 31.35 86.04 31.08C86.55 30.66 87 29.96 87.42 29.44C87.23 28.94 87.1 28.5 87.15 27.97C87.26 26.76 88.5 25.5 89.43 24.79C90.08 24.29 90.64 24.07 91.46 24.19C91.66 24.22 92.87 22.43 94.43 22.17C95.14 22.05 95.55 22.12 96.12 22.55L96.23 22.63C97.6 21.23 98.75 19.37 99.95 17.8L108.98 5.99L111.93 2.17C112.5 1.43 113.05 0.67 113.7 0C114.89 0.55 115.84 1.4 116.63 2.44C118.09 4.4 118.77 6.9 118.41 9.33L118.39 9.51C118.27 10.33 118.01 11.52 117.54 12.23C117.24 12.69 116.8 13.11 116.45 13.53L114.37 16.01L104.91 27.24L103.13 29.25C102.96 29.44 102.55 29.81 102.45 30.03C102.39 30.15 102.46 30.65 102.47 30.8C102.49 31.35 102.5 31.89 102.38 32.44C102.11 33.76 101.39 34.6 100.31 35.32C100.42 35.59 100.52 35.87 100.58 36.16C100.92 37.95 100.09 40.27 99.1 41.75C98.15 43.15 96.57 44.84 94.82 45.14L94.69 45.16C94.25 45.23 93.86 45.23 93.42 45.19L93.28 45.18L91.97 47.34C91.4 48.1 89.67 49.86 88.68 49.95C88.15 50 87.49 49.68 87.01 49.48C85.08 48.67 83.45 47.62 81.81 46.34L82.31 49.88L83.77 58.35C83.97 59.51 84.04 60.95 84.42 62.03C84.49 62.23 84.85 62.44 85.02 62.58C87.03 64.22 88.56 66.86 88.81 69.46C89.04 71.99 88.5 74.23 87.11 76.37C86.6 77.17 85.95 77.89 85.35 78.62L86.62 82.75C88 86.61 89.9 90.41 92.13 93.83L92.66 93.28C93.35 92.62 94.58 92.63 95.48 92.66C96.58 92.69 97.43 93.11 98.18 93.92C98.66 94.43 98.98 94.98 98.95 95.7L98.88 97.22C99.59 98.26 100.63 99.19 101.48 100.12L104.86 104.02L105.95 105.38C106.1 105.59 106.3 105.98 106.54 106.08C107 106.27 107.84 106.27 108.36 106.35L113.89 107.32C120.09 108.51 126.27 110.03 132.27 111.98C134.22 112.62 136.28 113.25 138.11 114.2L122.51 111.13L98.37 107.94C92.01 107.35 85.57 107.36 79.19 107.26L51.75 107.69L40.9 108.45C27.95 109.43 15.05 110.97 2.43 114.15C3.41 113.39 4.99 113.03 6.16 112.63C15.66 109.36 25.72 107.63 35.66 106.42C34.8 104.91 33.87 103.45 33.09 101.89C29.31 94.22 27.52 85.5 28.53 76.97C29.61 67.75 33.55 59.2 40.16 52.64C41.7 51.11 43.41 49.77 45.11 48.43C45.85 48.94 46.64 49.43 47.22 50.13C50.05 55.13 52.74 60.15 56.21 64.75C57.2 66.07 58.23 67.38 59.33 68.6L61.31 70.69C61.61 71.01 62.01 71.35 62.23 71.73C60.69 73.35 59.26 74.98 58 76.82L56.68 78.83C56.45 79.2 56.23 79.64 55.94 79.96C54.8 79.77 53.59 79.57 52.56 80.26L52.28 80.47C51.09 81.7 50.68 83.05 50.22 84.64L49.13 89.15L48.27 95.49L48.52 95.76C48.38 96.81 48.06 97.91 47.78 98.94L47.21 101.52C47.15 101.79 47.11 102.25 46.99 102.49Z" fill="#121F5E" fill-opacity="1.000000" fill-rule="nonzero"/>
	<path id="Vector" d="M91.12 40.49C91.47 40.52 91.62 40.47 91.87 40.74C91.87 41.13 91.89 41.37 91.64 41.69L91.14 41.6C90.86 41.28 91.19 41.23 91.19 40.89C91.2 40.75 91.14 40.62 91.12 40.49Z" fill="#FEFEFE" fill-opacity="1.000000" fill-rule="nonzero"/>
	<path id="Vector" d="M94.98 31.34C95.55 31.08 96.02 30.96 96.65 30.89L96.78 31.24L96.69 31.42C95.9 31.5 95.47 31.61 94.8 32.04L94.67 31.64L94.98 31.34Z" fill="#FEFEFE" fill-opacity="1.000000" fill-rule="nonzero"/>
	<path id="Vector" d="M98.05 30.05L98.54 30.03C98.86 30.06 98.94 30.15 99.14 30.39C99.17 30.69 99.22 30.87 99.09 31.15L98.71 31.22C98.52 31.21 98.18 31.21 98.01 31.11C97.79 30.97 97.49 30.54 97.42 30.29L98.05 30.05Z" fill="#FEFEFE" fill-opacity="1.000000" fill-rule="nonzero"/>
	<path id="Vector" d="M89.58 32.42L89.39 32.47L87.96 30.95C88.19 30.7 88.38 30.5 88.67 30.33C89.14 30.84 89.99 31.49 90.24 32.12L89.58 32.42Z" fill="#FEFEFE" fill-opacity="1.000000" fill-rule="nonzero"/>
	<path id="Vector" d="M96.03 33.16L97.59 33.33C97.93 33.67 98.23 34 98.28 34.49L97.99 34.75L97.67 34.63C97.18 34.44 96.66 34.29 96.14 34.16C95.82 34.08 95.39 34.04 95.14 33.82L95.19 33.59C95.42 33.29 95.66 33.25 96.03 33.16Z" fill="#FEFEFE" fill-opacity="1.000000" fill-rule="nonzero"/>
	<path id="Vector" d="M95.37 27.53C95.83 27.17 97 27.17 97.59 27.26C98.12 27.34 98.39 27.85 98.66 28.27L98.73 28.37L97.54 28.51L96.56 28.65L95.37 27.53Z" fill="#FEFEFE" fill-opacity="1.000000" fill-rule="nonzero"/>
	<path id="Vector" d="M89.78 38.59L89.92 38.59L90 38.69C89.77 39.42 89.63 40.81 88.93 41.17C88.55 41.37 87.92 41.06 87.52 40.95C87.33 40.88 87.22 40.84 87.09 40.69C87.54 39.88 88.99 39.07 89.78 38.59Z" fill="#FEFEFE" fill-opacity="1.000000" fill-rule="nonzero"/>
	<path id="Vector" d="M63.44 25.3L63.47 25.35C63.42 25.82 63.2 26.31 63.03 26.75C62.61 27.81 61.9 29.48 61.05 30.25C60.55 30.69 59.87 30.95 59.26 31.21L63.44 25.3Z" fill="#FEFEFE" fill-opacity="1.000000" fill-rule="nonzero"/>
	<path id="Vector" d="M93.03 24.93C93.66 24.41 94.34 23.87 95.09 23.54C95.67 23.99 96.11 24.4 96.52 25.01L95.4 25.65C94.97 25.81 94.54 26.08 94.13 26.29L93.03 24.93Z" fill="#FEFEFE" fill-opacity="1.000000" fill-rule="nonzero"/>
	<path id="Vector" d="M92.7 40.99L92.85 40.94C93.38 40.83 94.76 41.23 95.16 41.56C95.29 42.19 94.66 43.25 94.33 43.79C94.11 43.85 93.99 43.83 93.77 43.79C93.78 43.43 94.02 43.23 93.96 42.89L92.89 42.55L92.54 42.43C92.25 42.29 92.06 42.04 91.98 41.74C92.05 41.42 92.45 41.18 92.7 40.99Z" fill="#FEFEFE" fill-opacity="1.000000" fill-rule="nonzero"/>
	<path id="Vector" d="M56.38 18.8L56.59 18.78L56.21 18.91C54.42 19.64 52.4 20.05 50.53 20.6C48.09 21.33 45.66 22.23 43.17 22.76C43 22.8 43.01 22.84 42.85 22.75C43.6 22 45.18 21.6 46.19 21.3C49.51 20.3 52.98 19.52 56.38 18.8Z" fill="#FEFEFE" fill-opacity="1.000000" fill-rule="nonzero"/>
	<path id="Vector" d="M85.59 41.89L85.74 41.9C85.76 42.49 85.04 43.53 84.81 44.14C84.54 44.86 84.39 45.6 84.26 46.35C83.96 46.32 83.33 45.72 83.06 45.52L82.17 44.91C83.25 43.82 84.29 42.72 85.59 41.89Z" fill="#AC2242" fill-opacity="1.000000" fill-rule="nonzero"/>
	<path id="Vector" d="M59.87 41.16C60.23 40.74 60.55 40.48 61.03 40.19L67.3 41.56L67.38 41.71L67.05 42.15C66.24 42.15 65.43 42 64.62 41.89L59.87 41.16Z" fill="#FEFEFE" fill-opacity="1.000000" fill-rule="nonzero"/>
	<path id="Vector" d="M54.21 83.85C56.43 84.86 58.43 86.06 60.5 87.35C61.09 87.71 61.76 88.03 62.27 88.48L62.03 88.46L56.52 86.04C55.69 85.68 54.83 85.19 53.95 84.97L53.86 84.95C53.94 84.58 54.09 84.21 54.21 83.85Z" fill="#FEFEFE" fill-opacity="1.000000" fill-rule="nonzero"/>
	<path id="Vector" d="M53.37 87.01L62.26 91.65L62.05 91.66L53.02 87.94L53.37 87.01Z" fill="#FEFEFE" fill-opacity="1.000000" fill-rule="nonzero"/>
	<path id="Vector" d="M96.31 94.76L96.49 94.72C96.79 94.85 96.94 94.97 97.15 95.22C96.82 98.29 95.14 101.4 93.16 103.71L92.9 104.01L92.83 104C94.54 101.24 95.86 97.99 96.31 94.76Z" fill="#FEFEFE" fill-opacity="1.000000" fill-rule="nonzero"/>
	<path id="Vector" d="M94.44 94.56L94.72 94.55C94.35 95.57 94.08 96.62 93.67 97.63C92.5 100.5 90.4 102.78 87.74 104.35L87.54 104.36C87.96 103.92 88.48 103.58 88.94 103.17C89.63 102.57 90.29 101.89 90.85 101.16C91.88 99.81 92.56 98.35 93.18 96.78C93.41 96.2 93.63 95.39 93.98 94.88C94.09 94.71 94.27 94.64 94.44 94.56Z" fill="#FEFEFE" fill-opacity="1.000000" fill-rule="nonzero"/>
	<path id="Vector" d="M93.22 34.33C94.45 34.42 95.72 34.45 96.89 34.86C97.31 35 97.65 35.12 97.85 35.54C97.81 36.06 97.7 36.47 97.34 36.85C95.84 36.2 94.09 36.01 92.5 35.69C92.68 35.2 92.95 34.78 93.22 34.33Z" fill="#FEFEFE" fill-opacity="1.000000" fill-rule="nonzero"/>
	<path id="Vector" d="M88.67 30.33L88.69 30.12L89.02 30.39C89.21 30.24 89.41 30.29 89.65 30.28L89.04 29.64L89.13 29.47C90.13 30.47 90.88 31.46 91.65 32.64C91.9 32.36 92.34 32.21 92.67 32.05L94.49 31.08L94.98 31.35L94.67 31.64L94.8 32.04C94.57 32.36 94.32 32.4 93.99 32.54L93.84 32.62C93.71 32.68 93.63 32.71 93.49 32.74C93.11 32.81 92.74 32.99 92.39 33.14L91.85 33.46L91.33 33.81L91.28 34.25C91.22 34.39 91.26 34.32 91.14 34.45C90.66 33.99 90.1 33.42 89.84 32.79C89.76 32.62 89.7 32.56 89.58 32.42L90.24 32.12C89.99 31.49 89.15 30.84 88.67 30.33Z" fill="#FFFFFF" fill-opacity="1.000000" fill-rule="nonzero"/>
	<path id="Vector" d="M89.84 32.79L90.34 32.44C90.79 32.72 91.09 33.76 91.28 34.25C91.22 34.39 91.26 34.32 91.14 34.45C90.66 33.99 90.1 33.42 89.84 32.79Z" fill="#FEFEFE" fill-opacity="1.000000" fill-rule="nonzero"/>
	<path id="Vector" d="M95.79 41.03C94.58 40.77 93.28 40.05 92.02 40.14C91.52 40.17 91.08 40.18 90.65 39.89C90.53 39.51 90.75 38.92 90.84 38.54C92.57 38.41 94.66 38.72 96.28 39.34C96.27 40.03 96.21 40.48 95.79 41.03Z" fill="#FEFEFE" fill-opacity="1.000000" fill-rule="nonzero"/>
	<path id="Vector" d="M91.28 36.37C92.77 36.32 94 36.51 95.44 36.83C95.91 36.94 96.51 37.02 96.89 37.34C97.11 37.53 97.11 37.61 97.15 37.89C97.04 38.23 96.93 38.42 96.69 38.69C96.57 38.71 96.53 38.73 96.42 38.73C96.12 38.75 95.78 38.62 95.49 38.55L93.68 38.15C92.94 38 92.19 37.93 91.44 37.83C91.23 37.8 90.96 37.81 90.8 37.67C90.91 37.19 91.06 36.81 91.28 36.37Z" fill="#FEFEFE" fill-opacity="1.000000" fill-rule="nonzero"/>
	<path id="Vector" d="M99.48 101.12L103.19 105.64L101.61 105.52L97.77 105.18C98.62 103.87 99.05 102.6 99.48 101.12Z" fill="#AC2242" fill-opacity="1.000000" fill-rule="nonzero"/>
	<path id="Vector" d="M96.67 39.42L97.39 38.63C97.48 38.53 97.53 38.44 97.57 38.31C97.66 37.94 97.6 37.53 97.7 37.15C97.83 36.68 98.2 36 98.14 35.53C98.12 35.33 98.02 35.14 97.92 34.97C98.09 35.04 98.19 35.12 98.34 35.22L98.68 35.19C99.12 35.65 99.37 36.65 99.37 37.26C99.35 39.03 98.22 41.13 96.94 42.32C96.42 42.79 95.89 43.17 95.29 43.52C95.44 43.15 95.63 42.77 95.73 42.38C95.84 41.96 95.85 41.63 96.13 41.27L96.16 41.25C96.74 40.64 96.74 40.2 96.67 39.42Z" fill="#FEFEFE" fill-opacity="1.000000" fill-rule="nonzero"/>
	<path id="Vector" d="M54.58 9.4C55.54 9.28 56.52 9.37 57.47 9.54C54.64 9.81 51.24 10.14 48.99 12.09C47.21 13.63 47.19 15.73 47.03 17.9C47.03 18.24 47.04 18.57 46.97 18.9L45.4 19.35C45.46 17.18 45.92 14.5 47.32 12.76C49.27 10.34 51.61 9.71 54.58 9.4Z" fill="#FEFEFE" fill-opacity="1.000000" fill-rule="nonzero"/>
	<path id="Vector" d="M95.7 25.97C96.15 25.78 96.59 25.61 97.07 25.5C97.33 25.24 97.48 24.99 97.89 25.03C98.59 25.09 99.42 26.04 99.79 26.58C100.87 28.18 101.46 30.51 101.03 32.41C100.88 33.09 100.6 33.6 100.14 34.12L99.97 34.09C99.71 33.47 99.7 32.93 99.89 32.29C100.19 31.24 100.18 29.9 99.61 28.94C99.33 28.43 98.62 27.14 98.06 26.96C97.24 26.68 95.87 26.76 95.09 27.14C94.79 27.07 94.72 26.95 94.51 26.74L94.51 26.58L95.7 25.97Z" fill="#FEFEFE" fill-opacity="1.000000" fill-rule="nonzero"/>
	<path id="Vector" d="M84.12 80.76C84.18 80.8 84.25 80.82 84.29 80.86C84.46 81.03 84.71 82.3 84.79 82.57C85.2 83.99 85.71 85.39 86.27 86.75C86.93 88.34 87.67 89.91 88.52 91.41L90.47 94.55C90.71 94.94 91.17 95.47 91.28 95.91C91.32 96.07 91.13 96.31 91.05 96.46L90.95 96.43C87.62 93.11 85.64 88.99 84.38 84.49C84.11 83.52 83.62 81.66 84.12 80.76Z" fill="#FEFEFE" fill-opacity="1.000000" fill-rule="nonzero"/>
	<path id="Vector" d="M67.61 42.56C67.83 42.27 68.08 41.92 68.39 41.71C69 41.32 69.84 41.05 70.5 40.74L75.23 38.42L81.68 35.12C83.12 34.35 84.78 33.12 86.36 32.69L86.83 33.06C85.6 33.65 84.48 34.47 83.29 35.14L75.37 39.39C72.84 40.67 70.39 41.94 67.61 42.56Z" fill="#FEFEFE" fill-opacity="1.000000" fill-rule="nonzero"/>
	<path id="Vector" d="M62.92 15.18C63.23 15.16 63.6 15.11 63.9 15.19C64.09 15.23 64.22 15.44 64.3 15.61C64.77 16.61 64.93 18.06 65.03 19.15C65.07 19.51 65.13 19.96 65 20.3C64.78 20.84 63.75 21.06 63.23 21.26L63.05 21.28C62.81 21.29 62.66 21.26 62.49 21.1C62.28 20.9 62.11 20.68 62.01 20.4C61.71 19.52 61.58 18.5 61.37 17.59C61.25 17.02 61 16.49 60.98 15.9C61.56 15.39 62.18 15.3 62.92 15.18Z" fill="#FBCA57" fill-opacity="1.000000" fill-rule="nonzero"/>
	<path id="Vector" d="M63.43 67.9C62.52 66.86 61.71 65.7 60.89 64.58L55.77 56.92C54.4 54.68 53.08 52.38 51.48 50.3C52.59 50.77 53.5 51.23 54.7 51.47C55.22 52.97 55.95 54.44 56.64 55.87C57.75 58.21 58.91 60.51 60.25 62.73L62.32 66.07C62.7 66.66 63.2 67.24 63.43 67.9Z" fill="#FEFEFE" fill-opacity="1.000000" fill-rule="nonzero"/>
	<path id="Vector" d="M52.77 90.05L63.24 94.88C62.6 94.88 61.66 94.41 61.05 94.2L53.59 91.48L52.78 95.38L51.37 101.11C51.22 101.79 50.66 104.99 50.26 105.41C49.97 105.41 49.65 105.5 49.43 105.3L52.77 90.05Z" fill="#FEFEFE" fill-opacity="1.000000" fill-rule="nonzero"/>
	<path id="Vector" d="M46.99 102.49C46.41 102.52 45.86 102.67 45.3 102.76C44.13 102.94 42.91 103.07 41.73 103.1C41.1 103.11 40.47 103.16 39.88 102.92C38.95 102.53 38.07 101.88 37.19 101.38C37.68 101 38.67 100.83 39.28 100.66C42.09 99.89 44.89 99.33 47.78 98.94L47.21 101.52C47.15 101.79 47.11 102.25 46.99 102.49Z" fill="#FFFFFF" fill-opacity="1.000000" fill-rule="nonzero"/>
	<path id="Vector" d="M83.91 74.47C83.95 74.51 83.96 74.57 83.97 74.62L83.46 75.67C81.3 79.76 77.69 83.31 74.19 86.26C72.08 88.03 69.86 89.82 67.19 90.65C67.19 90.06 67.2 89.48 67.24 88.9C67.25 88.82 67.26 88.49 67.29 88.43C67.33 88.35 68.37 87.93 68.5 87.87C69.98 87.23 71.29 86.36 72.6 85.42C75.44 83.39 78.39 81.14 80.77 78.57C81.95 77.3 82.96 75.91 83.91 74.47Z" fill="#FEFEFE" fill-opacity="1.000000" fill-rule="nonzero"/>
	<path id="Vector" d="M86.53 42.09C87.08 42.46 87.71 42.76 88.31 43.03L89.79 42.22C90.08 42.52 90.4 42.85 90.63 43.2C91.03 43.81 91.14 44.24 91.72 44.74L91.83 44.83C91.31 45.82 90.78 46.58 90.04 47.42C89.54 47.88 89.07 48.25 88.49 48.59L85.13 47.08C85.25 45.17 85.69 43.8 86.53 42.09Z" fill="#F14749" fill-opacity="1.000000" fill-rule="nonzero"/>
	<path id="Vector" d="M64.6 25.6L64.77 25.58C65.18 26.15 65.31 27.18 65.43 27.88C65.94 30.8 64.88 33.68 63.19 36.04L59.99 34.66C59.08 34.2 58.34 33.72 57.57 33.05L60.29 32.12C60.82 31.88 61.34 31.62 61.78 31.21C63.19 29.88 63.9 27.36 64.6 25.6Z" fill="#F14749" fill-opacity="1.000000" fill-rule="nonzero"/>
	<path id="Vector" d="M78.76 35.08L78.3 35.13C78 34.84 77.85 34.18 77.7 33.79L76.75 31.64C75.89 29.9 74.87 28.3 73.75 26.71C71.47 26.35 69.27 26.2 66.96 26.24C69.29 25.36 72.03 24.27 74.57 24.61L74.75 24.64C75.08 24.68 75.39 24.73 75.71 24.83C79.18 25.88 81.65 29.51 83.26 32.54L82.22 33.06C80.6 30.14 77.48 28.33 74.59 26.89C76.58 29.44 78.06 31.88 78.76 35.08Z" fill="#FEFEFE" fill-opacity="1.000000" fill-rule="nonzero"/>
	<path id="Vector" d="M92.79 25.18L93.03 24.93L94.13 26.29C94.54 26.08 94.97 25.81 95.4 25.65L95.7 25.97L94.51 26.58L94.51 26.74C94.72 26.95 94.79 27.07 95.09 27.14L95.28 27.27L95.32 27.55L95.37 27.53L96.56 28.65L97.54 28.51L98.52 28.66L98.86 28.67L99.16 29.17C98.36 29.19 97.49 29.14 96.7 29.29L96.48 29.49L96.55 29.65C96.62 29.81 96.65 29.95 96.66 30.12C96.16 30.57 95.13 30.76 94.49 31.08L92.67 32.05C92.34 32.21 91.9 32.36 91.65 32.63C90.88 31.46 90.12 30.47 89.13 29.47C88.92 29.15 88.58 28.73 88.6 28.34C88.65 27.55 89.66 26.63 90.24 26.15C90.51 25.93 90.78 25.63 91.14 25.69C91.75 25.8 92.15 25.55 92.67 25.25L92.79 25.18Z" fill="#FEFEFE" fill-opacity="1.000000" fill-rule="nonzero"/>
	<path id="Vector" d="M92.79 25.18L93.03 24.93L94.13 26.29C94.54 26.08 94.97 25.81 95.4 25.65L95.7 25.97L94.51 26.58L94.51 26.74C94.72 26.95 94.79 27.07 95.09 27.14L95.28 27.27L95.32 27.55L95.37 27.53L96.56 28.65L97.54 28.51L98.52 28.66C97.92 28.77 97.43 28.88 96.87 29.12L96.7 29.2L96.6 29.24C96.33 29.23 96.3 29.19 96.08 29.04C95.77 28.65 95.48 28.23 95.08 27.94C94.14 27.42 93.28 26.13 92.79 25.18Z" fill="#FFFFFF" fill-opacity="1.000000" fill-rule="nonzero"/>
	<path id="Vector" d="M81.3 64.47L81.65 64.48C81.5 64.53 81.35 64.59 81.2 64.62C76.02 65.77 71.91 69.44 68.45 73.26C66.7 75.2 65.06 77.21 63.54 79.33C62.46 80.86 61.59 82.61 60.42 84.06C60.11 84.15 59.96 84.02 59.67 83.9L58.44 83.31L61.24 78.67C65.67 72.53 73.66 65.7 81.3 64.47Z" fill="#FEFEFE" fill-opacity="1.000000" fill-rule="nonzero"/>
	<path id="Vector" d="M55.57 49.54L55.5 49.69C54.25 49.45 53.1 48.96 51.96 48.41C50.3 47.62 48.86 46.81 47.71 45.35C46.32 43.59 45.44 41.48 45.73 39.21C45.91 37.83 46.62 36.71 47.71 35.88C48.79 35.06 50.06 34.33 51.46 34.57C51.78 34.62 52.19 34.72 52.39 34.99C51.93 35.24 51.42 35.37 50.95 35.63C50.32 35.96 49.84 36.4 49.33 36.89L60.32 39.85C59.94 40.1 59.48 40.47 59.04 40.59L58.89 40.63L48.27 38.61C47.55 40.24 47.06 41.76 47.75 43.49C48.86 46.28 52.6 48.38 55.26 49.43L55.57 49.54Z" fill="#FEFEFE" fill-opacity="1.000000" fill-rule="nonzero"/>
	<path id="Vector" d="M99.35 24.27L98.07 23.52C99.59 20.89 101.73 18.52 103.58 16.1L114.36 1.99L115.43 3.51L111.57 8.54L105.57 16.38L101.03 22.18C100.48 22.86 99.95 23.63 99.35 24.27Z" fill="#FEFEFE" fill-opacity="1.000000" fill-rule="nonzero"/>
	<path id="Vector" d="M59.14 20.2L59.35 20.2C59.43 20.42 59.73 21.36 59.68 21.55C59.65 21.69 59.2 22.11 59.08 22.23L56.53 24.89C56.17 25.23 55.01 26.05 54.92 26.45C55.07 26.67 55.16 26.79 55.41 26.93C55.93 26.64 56.39 26.16 56.83 25.75C57.92 24.75 58.93 23.69 59.91 22.57L60.24 25.99C60.27 26.25 60.39 26.8 60.34 27.05C60.32 27.13 60.09 27.38 60.03 27.46L59.09 28.71C58.33 29.72 57.33 31.06 56.26 31.72C55.24 32.35 53.81 32.74 52.64 32.9C51.95 32.12 51.32 31.32 50.78 30.43L53.35 29.79C54.01 29.61 54.98 29.39 55.52 28.97C55.71 28.83 55.74 28.82 55.77 28.58C55.44 28.48 55.08 28.64 54.75 28.73L52.6 29.2C51.79 29.35 50.99 29.44 50.17 29.51L48.93 27.71C50.97 27.01 53.01 26.69 54.96 25.7L48.58 26.74C48.09 25.65 47.77 24.58 47.57 23.4C48.92 23.21 50.29 22.82 51.61 22.48C54.16 21.84 56.67 21.13 59.14 20.2Z" fill="#FEFEFE" fill-opacity="1.000000" fill-rule="nonzero"/>
	<path id="Vector" d="M115.43 3.51C116.48 5.51 116.67 8.62 116.33 10.84C115.59 11.93 114.62 12.92 113.76 13.92L109.23 19.2L104.37 25.05C103.56 26.03 102.81 27.07 101.94 28C101.38 26.7 100.62 25.04 99.35 24.27C99.95 23.63 100.48 22.86 101.03 22.18L105.57 16.38L111.57 8.54L115.43 3.51Z" fill="#FBCA57" fill-opacity="1.000000" fill-rule="nonzero"/>
	<path id="Vector" d="M65.36 99.82L63.4 105.14L61.59 105.17C62.55 102.26 63.54 99.21 64.8 96.42C65.37 95.15 66.08 93.95 66.72 92.71C67.15 92.54 67.61 92.45 68.05 92.27C69.54 91.65 70.91 90.93 72.28 90.09C75.1 94.17 78.34 97.69 81.95 101.09L84.59 103.51C85.1 103.97 85.69 104.41 86.16 104.91L84.18 104.9C84.1 104.9 83.68 104.93 83.62 104.9C83.28 104.69 82.9 104.19 82.58 103.91L77.94 99.84L65.36 99.82Z" fill="#FEFEFE" fill-opacity="1.000000" fill-rule="nonzero"/>
	<path id="Vector" d="M67.55 95.13C67.7 94.89 67.88 94.57 68.12 94.4C68.56 94.09 69.2 93.94 69.69 93.7C70.39 93.36 71.02 92.86 71.62 92.37L73.82 95.21L67.55 95.13Z" fill="#FBCA57" fill-opacity="1.000000" fill-rule="nonzero"/>
	<path id="Vector" d="M67.55 95.13L73.82 95.21L77.94 99.84L65.36 99.82L67.55 95.13Z" fill="#EC7A3B" fill-opacity="1.000000" fill-rule="nonzero"/>
	<path id="Vector" d="M86.83 33.06C87.98 34.19 88.71 35.43 89.25 36.95C87.54 38.46 85.62 39.7 83.77 41.04L73.36 48.21C72.97 48.45 72.24 49.03 71.83 49.13C71.54 49.2 71.07 49.14 70.77 49.14L68.35 49.14L56.99 49.01L56.89 48.95C56.81 45.88 58.08 43.58 59.87 41.16L64.62 41.89C65.43 42 66.24 42.15 67.05 42.15L65.97 44.7C66.57 44.05 66.99 43.16 67.61 42.56C70.39 41.94 72.84 40.67 75.37 39.39L83.29 35.14C84.48 34.47 85.6 33.65 86.83 33.06Z" fill="#F14749" fill-opacity="1.000000" fill-rule="nonzero"/>
	<path id="Vector" d="M47.22 50.13C50.05 55.13 52.74 60.15 56.21 64.75C57.2 66.07 58.23 67.38 59.33 68.6L61.31 70.69C61.61 71.01 62.01 71.35 62.23 71.73C60.69 73.34 59.26 74.98 58 76.82L56.68 78.83C56.45 79.2 56.23 79.64 55.94 79.96C54.8 79.77 53.59 79.57 52.56 80.26L52.28 80.47C51.09 81.7 50.68 83.05 50.22 84.64L49.13 89.15L48.9 72.17C48.8 71.42 48.85 70.61 48.84 69.85L48.81 65.83C48.8 65.28 48.92 64.33 48.66 63.84L47.37 95.62L45.41 96.07L45.12 72.82L45.04 65.6C45.02 63.98 45.05 62.35 44.86 60.74C44.71 61.85 44.73 62.98 44.7 64.09L44.58 71.08L44.34 96.24L41.53 96.87L41.07 59.58C40.54 60.37 40.42 93.55 40.41 97.11L37.72 97.93L37.16 62.28C36.82 65.39 36.88 68.56 36.81 71.69L36.59 89.71L36.55 95.48C36.55 96.38 36.66 97.45 36.52 98.34L35.29 98.91C34.57 97.53 34.05 96.03 33.56 94.56C31.66 88.82 31.04 82.66 31.82 76.67C32.83 68.88 35.9 61.61 41.12 55.7C42.95 53.63 45.03 51.81 47.22 50.13Z" fill="url(#paint_linear_9_899_0)" fill-opacity="1.000000" fill-rule="nonzero"/>
</svg>
