<svg width="73.158691" height="72.000000" viewBox="0 0 73.1587 72" fill="none" xmlns="http://www.w3.org/2000/svg" xmlns:xlink="http://www.w3.org/1999/xlink">
	<desc>
			Created with Pixso.
	</desc>
	<defs>
		<linearGradient x1="31.967527" y1="37.037376" x2="15.664755" y2="38.991188" id="paint_linear_9_836_0" gradientUnits="userSpaceOnUse">
			<stop stop-color="#FE9F30"/>
			<stop offset="1.000000" stop-color="#E05C51"/>
		</linearGradient>
	</defs>
	<path id="Vector" d="M28.63 57.55L29.63 57.55L29.73 64.15L28.7 64.18L28.63 57.55Z" fill="#121F5E" fill-opacity="1.000000" fill-rule="nonzero"/>
	<path id="Vector" d="M50.62 57.91C50.98 57.91 54.66 57.91 54.73 57.98L54.72 58.63L53.22 58.63L53.24 63.17L53.24 64.64L52.15 64.63L52.15 58.63L50.63 58.62L50.62 57.91Z" fill="#121F5E" fill-opacity="1.000000" fill-rule="nonzero"/>
	<path id="Vector" d="M45.18 57.55L48.2 57.69L48.2 58.7L46.09 58.65L46.08 59.93C46.08 60.12 46.06 60.36 46.11 60.54L47.85 60.63L47.84 61.64L46.09 61.55L46.09 62.64L46.1 63.38L48.23 63.47L48.24 64.48L45.16 64.33L45.18 57.55Z" fill="#121F5E" fill-opacity="1.000000" fill-rule="nonzero"/>
	<path id="Vector" d="M33.33 57.44L34.84 57.44C35.06 57.45 35.34 57.42 35.52 57.56C36.09 58.01 36.12 59.1 36.2 59.76L35.07 59.77L35.04 58.51L33.66 58.48L33.69 63.13C34.08 63.14 34.56 63.17 34.95 63.08L35 62.92L35.06 61.94L36.22 61.93C36.19 62.38 36.14 63.03 35.94 63.43C35.82 63.66 35.61 63.87 35.43 64.06L33.89 64.07C33.74 64.07 33.49 64.1 33.35 64.05C33.24 64.02 33.11 63.91 33.03 63.83C32.94 63.74 32.75 63.53 32.71 63.41C32.67 63.31 32.68 63.12 32.68 63L32.68 61.98L32.66 58.09C32.86 57.85 33.09 57.65 33.33 57.44Z" fill="#121F5E" fill-opacity="1.000000" fill-rule="nonzero"/>
	<path id="Vector" d="M38.98 57.4L39.9 57.41L39.91 60.52L41.63 57.46C41.97 57.4 42.41 57.47 42.75 57.49L40.93 60.44L42.18 63.07L42.76 64.25L41.62 64.23C41.47 64.04 41.39 63.7 41.28 63.47L40.25 61.23L40.22 61.25C40.15 61.35 39.93 61.6 39.91 61.71C39.86 61.91 39.91 62.22 39.91 62.43L39.91 64.23L38.97 64.22L38.98 57.4Z" fill="#121F5E" fill-opacity="1.000000" fill-rule="nonzero"/>
	<path id="Vector" d="M16.84 58.08L18.1 58.04C18.47 58.04 18.73 58.12 19 58.39C19.44 58.86 19.34 59.66 19.34 60.26L18.21 60.32L18.16 59.15C17.91 59.06 17.24 59.07 16.99 59.18C16.9 59.22 16.85 59.31 16.8 59.4L16.88 62.73C16.89 63.04 16.84 63.68 17.01 63.93C17.14 64.02 17.23 64.02 17.39 64.03C17.71 64.03 17.99 64.05 18.24 63.81C18.35 63.5 18.27 63.01 18.25 62.67C18.24 62.56 18.24 62.49 18.29 62.39L19.42 62.32C19.41 62.94 19.57 63.71 19.29 64.28C19.14 64.58 18.88 64.79 18.57 64.89C18.09 65.06 16.86 65.18 16.42 64.93C16.09 64.74 15.88 64.42 15.81 64.05C15.67 63.42 15.75 62.65 15.74 61.99C15.72 61.1 15.6 60.14 15.68 59.25C15.7 59.02 15.76 58.81 15.9 58.62C16.14 58.28 16.44 58.15 16.84 58.08Z" fill="#121F5E" fill-opacity="1.000000" fill-rule="nonzero"/>
	<path id="Vector" d="M24.11 57.72L24.78 57.67C24.96 57.83 25.25 58.04 25.39 58.23C25.46 58.34 25.47 58.69 25.48 58.83L25.64 60.58L25.01 61.26L26.08 64.31L24.97 64.39L24.23 62.04C24.04 61.87 23.5 61.96 23.23 61.97L23.26 64.53L22.13 64.57L21.92 57.89L24.11 57.72Z" fill="#121F5E" fill-opacity="1.000000" fill-rule="nonzero"/>
	<path id="Vector" d="M23.75 58.86L24.46 58.83C24.48 59.42 24.75 60.18 24.41 60.7C24.31 60.84 24.11 60.82 23.96 60.84L23.23 60.89L23.12 58.88L23.75 58.86Z" fill="#FEFEFE" fill-opacity="1.000000" fill-rule="nonzero"/>
	<path id="Vector" d="M47.89 25.17L48.72 24C53.47 27.29 56.61 32.45 57.65 38.1C58.41 42.19 57.89 46.3 56.49 50.19C56.23 50.92 55.92 51.62 55.58 52.32C55.43 52.61 55.3 52.93 55.13 53.2C54.71 52.84 54.36 52.4 54 51.99C53.29 51.17 52.59 50.33 51.8 49.59L51.8 48.81L51.6 48.25C51.29 47.56 50.66 47.07 49.96 46.83C49.27 46.6 48.41 46.54 47.76 46.86L47.7 46.9C47.22 46.29 46.86 45.51 46.53 44.82C47.95 44.34 49.32 43.71 50.65 43.03C51.61 42.54 52.57 42.03 53.48 41.46L56.33 39.55C56.12 38.1 55.82 36.61 55.35 35.23C54.53 32.83 53.15 30.46 51.49 28.55C50.4 27.3 49.17 26.21 47.89 25.17Z" fill="#121F5E" fill-opacity="1.000000" fill-rule="nonzero"/>
	<path id="Vector" d="M56.33 39.55C56.5 41.53 56.51 43.48 56.2 45.45C55.99 46.78 55.62 48.05 55.24 49.32C54.45 49.16 53.66 49.07 52.86 48.96C52.52 48.91 52.14 48.82 51.8 48.81L51.6 48.25C51.29 47.57 50.66 47.07 49.96 46.83C49.27 46.6 48.41 46.54 47.76 46.86L47.7 46.9C47.22 46.29 46.86 45.51 46.53 44.82C47.95 44.34 49.32 43.71 50.65 43.03C51.61 42.54 52.57 42.03 53.48 41.46L56.33 39.55Z" fill="#EC7A3B" fill-opacity="1.000000" fill-rule="nonzero"/>
	<path id="Vector" d="M46.53 44.82C45.84 43.52 45.47 42 44.94 40.62L45.65 39.72C47.1 37.71 46.96 34.82 45.61 32.8C45.4 32.49 45.17 32.2 44.92 31.93C44.77 31.77 44.43 31.51 44.34 31.34C44.21 31.1 44.18 30.55 44.12 30.27L43.27 25.74C43.88 26.16 44.86 26.67 45.61 26.7C46.52 26.74 47.28 25.74 47.89 25.17C49.17 26.21 50.4 27.3 51.49 28.55C53.15 30.46 54.53 32.83 55.35 35.22C55.82 36.61 56.12 38.1 56.33 39.55L53.48 41.46C52.57 42.03 51.61 42.54 50.65 43.03C49.32 43.71 47.95 44.34 46.53 44.82Z" fill="#FBCA57" fill-opacity="1.000000" fill-rule="nonzero"/>
	<path id="Vector" d="M35.61 65.69L42.76 65.84L49.85 66.31C53.86 66.71 57.81 67.38 61.73 68.3C63.97 68.83 66.21 69.41 68.39 70.14L71.76 71.36C72.23 71.55 72.72 71.73 73.15 71.99L69.47 71.26L61.9 70.08C53.88 69.01 45.8 68.7 37.72 68.62C27.65 68.59 17.54 69.18 7.57 70.62L2.03 71.54L0 71.95C0.72 71.53 1.6 71.23 2.4 70.94L5.33 69.9C10.78 68.16 16.49 66.99 22.17 66.39C26.64 65.91 31.12 65.76 35.61 65.69Z" fill="#121F5E" fill-opacity="1.000000" fill-rule="nonzero"/>
	<path id="Vector" d="M24.16 52.7L23.74 54.36L24.44 54.31L25.63 49.2C25.97 47.41 26.15 45.66 26.67 43.91C26.79 43.51 26.89 43.08 27.06 42.69C27.19 42.39 27.44 42.03 27.77 41.92C28.2 41.78 28.8 42.16 29.17 42.35C30.36 40.4 31.61 38.37 33.39 36.89C32.85 36.39 32.34 35.83 31.83 35.29C29.95 33.26 28.3 30.98 26.93 28.58L25.31 25.67C25.18 25.45 25.1 25.13 24.94 24.93C24.88 24.85 24.81 24.81 24.72 24.76C23.84 24.25 23.22 23.36 22.83 22.44C22.39 21.39 22.37 20.15 22.81 19.09C23.33 17.84 24.24 17.05 25.47 16.54C25.34 16.25 25.04 15.95 24.87 15.67C24.14 14.51 23.67 13.46 23.45 12.11C23.22 12.07 22.85 12.2 22.63 12.26L20.64 12.77C20.93 11.54 21.57 10.94 22.6 10.25C22.56 9.59 22.58 8.95 22.7 8.3C22.95 6.91 23.73 5.69 24.91 4.9C26.24 4 28.08 3.76 29.62 4.07C30.91 4.33 32.07 5.19 32.77 6.29C33.63 7.62 33.99 9.35 33.83 10.91C33.78 11.38 33.65 11.87 33.55 12.33C33.77 12.51 33.97 12.69 34.16 12.9L35.66 12.08C36.92 11.52 38.42 11.17 39.75 11.68C41.64 12.41 42.9 14.55 43.67 16.32C43.86 16.22 44.08 16.12 44.25 15.98C44.51 15.77 44.74 15.41 44.95 15.14C44.86 14.88 44.79 14.66 44.82 14.38C44.87 13.76 45.51 13.11 45.99 12.75C46.33 12.49 46.61 12.37 47.04 12.44C47.14 12.45 47.76 11.53 48.56 11.4C48.93 11.34 49.14 11.38 49.43 11.6L49.49 11.64C50.19 10.92 50.78 9.96 51.4 9.15L56.04 3.08L57.56 1.11C57.86 0.73 58.14 0.34 58.47 0C59.08 0.28 59.57 0.72 59.98 1.25C60.73 2.26 61.08 3.55 60.89 4.8L60.88 4.89C60.82 5.31 60.69 5.92 60.45 6.29C60.29 6.52 60.07 6.74 59.88 6.95L58.82 8.23L53.95 14L53.04 15.04C52.95 15.14 52.74 15.33 52.69 15.44C52.66 15.5 52.69 15.76 52.69 15.84C52.7 16.12 52.71 16.4 52.65 16.68C52.51 17.36 52.14 17.79 51.58 18.16C51.64 18.3 51.69 18.44 51.72 18.59C51.9 19.51 51.47 20.71 50.96 21.47C50.48 22.19 49.66 23.06 48.76 23.21L48.69 23.22C48.47 23.26 48.27 23.26 48.04 23.24L47.97 23.23L47.29 24.35C47 24.73 46.11 25.64 45.61 25.69C45.33 25.71 44.99 25.55 44.74 25.44C43.75 25.03 42.91 24.49 42.07 23.83L42.33 25.65L43.08 30.01C43.18 30.6 43.22 31.34 43.41 31.9C43.45 32 43.64 32.11 43.72 32.18C44.76 33.03 45.54 34.38 45.67 35.72C45.79 37.02 45.51 38.17 44.8 39.28C44.53 39.68 44.2 40.06 43.89 40.43L44.55 42.55C45.25 44.54 46.23 46.49 47.38 48.25L47.65 47.97C48.01 47.63 48.64 47.64 49.1 47.65C49.66 47.67 50.11 47.88 50.49 48.3C50.74 48.56 50.9 48.85 50.89 49.21L50.85 49.99C51.22 50.53 51.75 51.01 52.19 51.49L53.93 53.49L54.48 54.19C54.56 54.3 54.67 54.5 54.79 54.55C55.03 54.65 55.46 54.65 55.73 54.69L58.57 55.19C61.76 55.8 64.93 56.58 68.02 57.59C69.03 57.92 70.08 58.24 71.02 58.73L63 57.15L50.59 55.51C47.32 55.21 44.01 55.21 40.73 55.16L26.61 55.38L21.03 55.77C14.37 56.27 7.74 57.07 1.25 58.7C1.75 58.31 2.56 58.13 3.17 57.92C8.05 56.24 13.22 55.35 18.34 54.73C17.89 53.95 17.41 53.2 17.02 52.4C15.07 48.45 14.15 43.97 14.67 39.58C15.23 34.84 17.25 30.44 20.65 27.07C21.44 26.28 22.32 25.59 23.2 24.9C23.58 25.17 23.98 25.42 24.28 25.78C25.74 28.35 27.12 30.93 28.91 33.3C29.42 33.98 29.94 34.65 30.51 35.28L31.53 36.35C31.68 36.52 31.89 36.69 32 36.89C31.21 37.72 30.48 38.56 29.82 39.5L29.15 40.54C29.03 40.73 28.92 40.96 28.77 41.12C28.18 41.02 27.56 40.92 27.03 41.28L26.89 41.38C26.27 42.01 26.06 42.71 25.82 43.53L25.27 45.85L24.82 49.11L24.95 49.24C24.88 49.79 24.71 50.35 24.57 50.88L24.28 52.21C24.25 52.34 24.22 52.59 24.16 52.7Z" fill="#121F5E" fill-opacity="1.000000" fill-rule="nonzero"/>
	<path id="Vector" d="M46.86 20.82C47.04 20.84 47.12 20.81 47.24 20.95C47.24 21.15 47.25 21.27 47.13 21.44L46.87 21.39C46.72 21.22 46.89 21.2 46.9 21.03C46.9 20.96 46.87 20.89 46.86 20.82Z" fill="#FEFEFE" fill-opacity="1.000000" fill-rule="nonzero"/>
	<path id="Vector" d="M48.85 16.12C49.14 15.98 49.38 15.92 49.7 15.89L49.77 16.07L49.72 16.16C49.32 16.2 49.1 16.26 48.75 16.48L48.69 16.27L48.85 16.12Z" fill="#FEFEFE" fill-opacity="1.000000" fill-rule="nonzero"/>
	<path id="Vector" d="M50.43 15.45L50.67 15.44C50.84 15.46 50.88 15.5 50.99 15.63C51 15.78 51.02 15.88 50.96 16.02L50.76 16.06C50.66 16.05 50.49 16.05 50.41 16C50.29 15.93 50.13 15.7 50.1 15.58L50.43 15.45Z" fill="#FEFEFE" fill-opacity="1.000000" fill-rule="nonzero"/>
	<path id="Vector" d="M46.07 16.67L45.97 16.69L45.24 15.92C45.35 15.79 45.45 15.68 45.6 15.6C45.84 15.86 46.28 16.19 46.41 16.52L46.07 16.67Z" fill="#FEFEFE" fill-opacity="1.000000" fill-rule="nonzero"/>
	<path id="Vector" d="M49.38 17.05L50.19 17.14C50.36 17.31 50.51 17.48 50.54 17.74L50.39 17.87L50.23 17.81C49.97 17.71 49.71 17.63 49.44 17.57C49.28 17.53 49.06 17.5 48.93 17.39L48.95 17.27C49.07 17.12 49.2 17.1 49.38 17.05Z" fill="#FEFEFE" fill-opacity="1.000000" fill-rule="nonzero"/>
	<path id="Vector" d="M49.05 14.15C49.28 13.97 49.88 13.97 50.18 14.02C50.46 14.06 50.6 14.32 50.74 14.54L50.77 14.59L50.16 14.66L49.65 14.73L49.05 14.15Z" fill="#FEFEFE" fill-opacity="1.000000" fill-rule="nonzero"/>
	<path id="Vector" d="M46.17 19.84L46.24 19.84L46.28 19.89C46.17 20.27 46.1 20.98 45.73 21.17C45.54 21.28 45.21 21.12 45.01 21.06C44.91 21.02 44.85 21 44.79 20.92C45.02 20.51 45.77 20.09 46.17 19.84Z" fill="#FEFEFE" fill-opacity="1.000000" fill-rule="nonzero"/>
	<path id="Vector" d="M32.63 13.01L32.64 13.03C32.61 13.28 32.5 13.53 32.41 13.75C32.2 14.3 31.83 15.16 31.39 15.55C31.14 15.78 30.79 15.91 30.48 16.05L32.63 13.01Z" fill="#FEFEFE" fill-opacity="1.000000" fill-rule="nonzero"/>
	<path id="Vector" d="M47.84 12.82C48.17 12.55 48.52 12.27 48.9 12.1C49.2 12.33 49.42 12.55 49.64 12.86L49.06 13.19C48.84 13.27 48.62 13.41 48.41 13.52L47.84 12.82Z" fill="#FEFEFE" fill-opacity="1.000000" fill-rule="nonzero"/>
	<path id="Vector" d="M47.67 21.08L47.75 21.05C48.02 21 48.73 21.2 48.94 21.37C49.01 21.69 48.68 22.24 48.51 22.52C48.4 22.55 48.34 22.54 48.22 22.52C48.23 22.33 48.35 22.23 48.32 22.05L47.77 21.88L47.59 21.82C47.44 21.75 47.34 21.62 47.3 21.46C47.34 21.3 47.54 21.18 47.67 21.08Z" fill="#FEFEFE" fill-opacity="1.000000" fill-rule="nonzero"/>
	<path id="Vector" d="M28.99 9.67L29.1 9.66L28.91 9.72C27.98 10.1 26.95 10.31 25.99 10.59C24.73 10.97 23.48 11.43 22.2 11.7C22.11 11.72 22.12 11.74 22.03 11.7C22.42 11.31 23.23 11.11 23.75 10.95C25.46 10.44 27.25 10.04 28.99 9.67Z" fill="#FEFEFE" fill-opacity="1.000000" fill-rule="nonzero"/>
	<path id="Vector" d="M44.02 21.54L44.09 21.55C44.1 21.85 43.73 22.38 43.61 22.7C43.47 23.07 43.4 23.45 43.33 23.84C43.18 23.82 42.85 23.51 42.71 23.41L42.26 23.1C42.81 22.53 43.35 21.97 44.02 21.54Z" fill="#AC2242" fill-opacity="1.000000" fill-rule="nonzero"/>
	<path id="Vector" d="M30.79 21.17C30.98 20.95 31.14 20.82 31.38 20.67L34.61 21.37L34.65 21.45L34.48 21.67C34.06 21.67 33.65 21.6 33.23 21.54L30.79 21.17Z" fill="#FEFEFE" fill-opacity="1.000000" fill-rule="nonzero"/>
	<path id="Vector" d="M27.88 43.12C29.02 43.64 30.05 44.26 31.11 44.92C31.41 45.11 31.76 45.27 32.02 45.5L31.9 45.49L29.07 44.25C28.64 44.06 28.2 43.81 27.75 43.7L27.7 43.69C27.74 43.49 27.81 43.31 27.88 43.12Z" fill="#FEFEFE" fill-opacity="1.000000" fill-rule="nonzero"/>
	<path id="Vector" d="M27.44 44.75L32.02 47.13L31.91 47.14L27.26 45.22L27.44 44.75Z" fill="#FEFEFE" fill-opacity="1.000000" fill-rule="nonzero"/>
	<path id="Vector" d="M49.53 48.73L49.62 48.71C49.78 48.78 49.85 48.84 49.96 48.97C49.79 50.55 48.93 52.15 47.91 53.33L47.77 53.49L47.74 53.48C48.62 52.06 49.3 50.39 49.53 48.73Z" fill="#FEFEFE" fill-opacity="1.000000" fill-rule="nonzero"/>
	<path id="Vector" d="M48.57 48.63L48.71 48.62C48.52 49.15 48.38 49.69 48.17 50.21C47.57 51.68 46.49 52.86 45.12 53.66L45.02 53.67C45.24 53.44 45.5 53.27 45.74 53.06C46.1 52.75 46.43 52.4 46.72 52.02C47.25 51.33 47.6 50.58 47.92 49.77C48.04 49.47 48.15 49.05 48.33 48.79C48.39 48.71 48.48 48.67 48.57 48.63Z" fill="#FEFEFE" fill-opacity="1.000000" fill-rule="nonzero"/>
	<path id="Vector" d="M47.94 17.65C48.57 17.7 49.22 17.72 49.83 17.92C50.04 18 50.22 18.06 50.32 18.28C50.3 18.54 50.24 18.75 50.06 18.95C49.29 18.62 48.39 18.51 47.57 18.35C47.66 18.1 47.8 17.88 47.94 17.65Z" fill="#FEFEFE" fill-opacity="1.000000" fill-rule="nonzero"/>
	<path id="Vector" d="M45.6 15.6L45.61 15.49L45.78 15.63C45.88 15.55 45.98 15.57 46.11 15.57L45.79 15.24L45.84 15.15C46.35 15.67 46.73 16.18 47.13 16.78C47.26 16.64 47.49 16.56 47.66 16.48L48.59 15.98L48.85 16.12L48.69 16.27L48.75 16.48C48.63 16.64 48.51 16.66 48.33 16.73L48.26 16.77C48.19 16.81 48.15 16.82 48.08 16.83C47.89 16.87 47.69 16.96 47.51 17.04L47.24 17.21L46.97 17.39L46.94 17.61C46.91 17.68 46.93 17.65 46.87 17.72C46.62 17.48 46.33 17.18 46.2 16.86C46.16 16.78 46.13 16.74 46.07 16.67L46.41 16.52C46.28 16.19 45.84 15.86 45.6 15.6Z" fill="#101A6C" fill-opacity="1.000000" fill-rule="nonzero"/>
	<path id="Vector" d="M46.2 16.86L46.46 16.68C46.69 16.83 46.84 17.36 46.94 17.61C46.91 17.68 46.93 17.65 46.87 17.72C46.62 17.48 46.33 17.18 46.2 16.86Z" fill="#FEFEFE" fill-opacity="1.000000" fill-rule="nonzero"/>
	<path id="Vector" d="M49.26 21.1C48.64 20.97 47.97 20.6 47.32 20.64C47.06 20.66 46.84 20.66 46.62 20.51C46.55 20.32 46.67 20.02 46.72 19.82C47.6 19.75 48.68 19.91 49.51 20.23C49.51 20.59 49.48 20.81 49.26 21.1Z" fill="#FEFEFE" fill-opacity="1.000000" fill-rule="nonzero"/>
	<path id="Vector" d="M46.94 18.7C47.71 18.68 48.34 18.77 49.08 18.94C49.32 19 49.63 19.03 49.83 19.2C49.94 19.3 49.94 19.34 49.96 19.48C49.9 19.66 49.85 19.76 49.72 19.89C49.66 19.91 49.64 19.92 49.59 19.92C49.43 19.92 49.26 19.86 49.11 19.82L48.18 19.62C47.8 19.54 47.41 19.5 47.02 19.45C46.92 19.44 46.78 19.45 46.7 19.37C46.75 19.13 46.83 18.93 46.94 18.7Z" fill="#FEFEFE" fill-opacity="1.000000" fill-rule="nonzero"/>
	<path id="Vector" d="M51.16 52L53.07 54.33L52.25 54.26L50.28 54.09C50.71 53.42 50.94 52.76 51.16 52Z" fill="#AC2242" fill-opacity="1.000000" fill-rule="nonzero"/>
	<path id="Vector" d="M49.72 20.27L50.08 19.87C50.13 19.81 50.16 19.77 50.17 19.7C50.22 19.51 50.19 19.3 50.25 19.1C50.31 18.86 50.5 18.51 50.47 18.27C50.46 18.17 50.41 18.07 50.36 17.98C50.44 18.02 50.5 18.06 50.57 18.11L50.75 18.1C50.97 18.33 51.1 18.84 51.1 19.16C51.09 20.07 50.51 21.15 49.85 21.76C49.59 22.01 49.31 22.2 49 22.38C49.08 22.19 49.18 21.99 49.23 21.79C49.29 21.58 49.29 21.41 49.44 21.22L49.45 21.21C49.75 20.9 49.75 20.67 49.72 20.27Z" fill="#FEFEFE" fill-opacity="1.000000" fill-rule="nonzero"/>
	<path id="Vector" d="M28.07 4.83C28.56 4.77 29.06 4.82 29.55 4.9C28.1 5.04 26.35 5.21 25.19 6.21C24.27 7.01 24.27 8.09 24.18 9.2C24.18 9.38 24.19 9.55 24.15 9.72L23.35 9.95C23.38 8.83 23.61 7.45 24.34 6.56C25.34 5.32 26.54 4.99 28.07 4.83Z" fill="#FEFEFE" fill-opacity="1.000000" fill-rule="nonzero"/>
	<path id="Vector" d="M49.21 13.35C49.45 13.26 49.67 13.17 49.92 13.11C50.05 12.98 50.13 12.85 50.34 12.87C50.7 12.9 51.13 13.39 51.32 13.67C51.87 14.49 52.17 15.69 51.96 16.67C51.88 17.02 51.74 17.28 51.5 17.54L51.41 17.53C51.28 17.21 51.27 16.93 51.37 16.6C51.52 16.06 51.52 15.37 51.23 14.88C51.08 14.62 50.71 13.96 50.43 13.86C50.01 13.72 49.3 13.76 48.9 13.95C48.75 13.92 48.71 13.86 48.6 13.75L48.61 13.67L49.21 13.35Z" fill="#FEFEFE" fill-opacity="1.000000" fill-rule="nonzero"/>
	<path id="Vector" d="M43.26 41.53C43.29 41.55 43.32 41.56 43.35 41.59C43.43 41.67 43.56 42.32 43.6 42.46C43.82 43.19 44.08 43.91 44.36 44.61C44.7 45.43 45.08 46.24 45.52 47.01L46.52 48.62C46.65 48.83 46.88 49.09 46.94 49.32C46.96 49.4 46.86 49.53 46.82 49.6L46.77 49.59C45.06 47.88 44.04 45.76 43.4 43.45C43.26 42.95 43 41.99 43.26 41.53Z" fill="#FEFEFE" fill-opacity="1.000000" fill-rule="nonzero"/>
	<path id="Vector" d="M34.77 21.89C34.88 21.73 35.01 21.55 35.17 21.45C35.48 21.25 35.92 21.11 36.26 20.95L38.69 19.76L42 18.06C42.74 17.66 43.6 17.03 44.41 16.81L44.65 17C44.02 17.3 43.44 17.72 42.84 18.07L38.76 20.25C37.46 20.91 36.2 21.57 34.77 21.89Z" fill="#FEFEFE" fill-opacity="1.000000" fill-rule="nonzero"/>
	<path id="Vector" d="M32.36 7.8C32.52 7.79 32.7 7.77 32.86 7.81C32.96 7.83 33.02 7.94 33.06 8.03C33.31 8.54 33.39 9.28 33.44 9.85C33.46 10.03 33.5 10.26 33.43 10.44C33.31 10.72 32.79 10.83 32.52 10.93L32.42 10.94C32.3 10.95 32.22 10.93 32.14 10.85C32.03 10.75 31.94 10.63 31.89 10.49C31.73 10.04 31.67 9.51 31.56 9.04C31.5 8.75 31.37 8.48 31.36 8.18C31.66 7.91 31.98 7.87 32.36 7.8Z" fill="#FBCA57" fill-opacity="1.000000" fill-rule="nonzero"/>
	<path id="Vector" d="M32.62 34.92C32.15 34.38 31.73 33.79 31.31 33.21L28.68 29.27C27.98 28.12 27.3 26.94 26.48 25.87C27.04 26.11 27.51 26.35 28.13 26.47C28.4 27.24 28.77 27.99 29.13 28.73C29.7 29.93 30.29 31.12 30.98 32.26L32.05 33.98C32.24 34.28 32.5 34.58 32.62 34.92Z" fill="#FEFEFE" fill-opacity="1.000000" fill-rule="nonzero"/>
	<path id="Vector" d="M27.14 46.31L32.52 48.79C32.19 48.79 31.71 48.55 31.39 48.44L27.56 47.05L27.14 49.05L26.42 52C26.34 52.35 26.05 53.99 25.85 54.21C25.7 54.21 25.53 54.25 25.42 54.15L27.14 46.31Z" fill="#FEFEFE" fill-opacity="1.000000" fill-rule="nonzero"/>
	<path id="Vector" d="M24.16 52.7C23.87 52.72 23.59 52.8 23.29 52.84C22.69 52.94 22.07 53 21.46 53.02C21.14 53.03 20.81 53.05 20.51 52.93C20.03 52.73 19.58 52.39 19.12 52.14C19.38 51.94 19.89 51.85 20.2 51.77C21.65 51.37 23.08 51.08 24.57 50.88L24.28 52.21C24.25 52.34 24.22 52.59 24.16 52.7Z" fill="#44549B" fill-opacity="1.000000" fill-rule="nonzero"/>
	<path id="Vector" d="M43.15 38.3C43.17 38.32 43.18 38.35 43.18 38.37L42.92 38.92C41.81 41.01 39.95 42.84 38.15 44.36C37.07 45.27 35.93 46.19 34.55 46.62C34.55 46.31 34.56 46.02 34.58 45.72C34.58 45.67 34.59 45.5 34.6 45.48C34.62 45.43 35.16 45.22 35.23 45.19C35.99 44.86 36.66 44.41 37.33 43.93C38.79 42.88 40.32 41.73 41.54 40.41C42.15 39.75 42.66 39.04 43.15 38.3Z" fill="#FEFEFE" fill-opacity="1.000000" fill-rule="nonzero"/>
	<path id="Vector" d="M44.5 21.64C44.78 21.83 45.1 21.99 45.41 22.13L46.17 21.71C46.32 21.86 46.49 22.03 46.61 22.21C46.81 22.53 46.87 22.75 47.17 23.01L47.23 23.05C46.96 23.56 46.68 23.95 46.3 24.39C46.05 24.62 45.81 24.81 45.51 24.99L43.78 24.21C43.84 23.23 44.07 22.53 44.5 21.64Z" fill="#F14749" fill-opacity="1.000000" fill-rule="nonzero"/>
	<path id="Vector" d="M33.22 13.16L33.31 13.15C33.52 13.45 33.59 13.98 33.65 14.34C33.91 15.84 33.36 17.32 32.5 18.53L30.85 17.82C30.38 17.59 30 17.34 29.61 16.99L31 16.52C31.28 16.39 31.55 16.26 31.77 16.05C32.5 15.37 32.86 14.07 33.22 13.16Z" fill="#F14749" fill-opacity="1.000000" fill-rule="nonzero"/>
	<path id="Vector" d="M40.5 18.04L40.27 18.07C40.11 17.92 40.03 17.58 39.96 17.38L39.47 16.27C39.03 15.37 38.5 14.55 37.92 13.74C36.75 13.55 35.62 13.47 34.43 13.49C35.63 13.04 37.04 12.48 38.35 12.65L38.44 12.67C38.61 12.69 38.77 12.72 38.94 12.77C40.72 13.31 41.99 15.17 42.82 16.73L42.28 17C41.45 15.5 39.84 14.57 38.36 13.83C39.38 15.14 40.14 16.39 40.5 18.04Z" fill="#FEFEFE" fill-opacity="1.000000" fill-rule="nonzero"/>
	<path id="Vector" d="M47.72 12.95L47.84 12.82L48.41 13.52C48.62 13.41 48.84 13.27 49.06 13.19L49.21 13.35L48.61 13.67L48.6 13.75C48.71 13.86 48.75 13.92 48.9 13.95L49 14.02L49.02 14.17L49.05 14.15L49.65 14.73L50.16 14.66L50.66 14.74L50.84 14.74L51 15C50.58 15.01 50.14 14.98 49.73 15.06L49.62 15.17L49.65 15.25C49.69 15.33 49.7 15.4 49.71 15.49C49.45 15.72 48.92 15.82 48.59 15.98L47.66 16.48C47.49 16.56 47.26 16.64 47.13 16.78C46.73 16.18 46.35 15.67 45.84 15.15C45.73 14.99 45.55 14.77 45.56 14.57C45.59 14.17 46.11 13.7 46.41 13.44C46.54 13.33 46.69 13.18 46.87 13.21C47.18 13.27 47.39 13.14 47.66 12.98L47.72 12.95Z" fill="#FEFEFE" fill-opacity="1.000000" fill-rule="nonzero"/>
	<path id="Vector" d="M47.72 12.95L47.84 12.82L48.41 13.52C48.62 13.41 48.84 13.27 49.06 13.19L49.21 13.35L48.61 13.67L48.6 13.75C48.71 13.86 48.75 13.92 48.9 13.95L49 14.02L49.02 14.17L49.05 14.15L49.66 14.73L50.16 14.66L50.66 14.74C50.36 14.79 50.1 14.85 49.82 14.98L49.73 15.01L49.68 15.04C49.54 15.03 49.52 15.01 49.41 14.93C49.25 14.73 49.1 14.51 48.89 14.37C48.41 14.1 47.97 13.44 47.72 12.95Z" fill="#101A6C" fill-opacity="1.000000" fill-rule="nonzero"/>
	<path id="Vector" d="M41.81 33.15L41.99 33.16C41.91 33.18 41.84 33.21 41.76 33.23C39.09 33.82 36.98 35.71 35.2 37.68C34.3 38.67 33.45 39.71 32.68 40.8C32.12 41.58 31.67 42.48 31.07 43.23C30.91 43.28 30.83 43.21 30.68 43.14L30.05 42.84L31.49 40.45C33.77 37.3 37.88 33.79 41.81 33.15Z" fill="#FEFEFE" fill-opacity="1.000000" fill-rule="nonzero"/>
	<path id="Vector" d="M28.58 25.48L28.54 25.55C27.9 25.43 27.31 25.18 26.72 24.9C25.87 24.49 25.13 24.07 24.53 23.32C23.82 22.42 23.37 21.33 23.52 20.16C23.61 19.45 23.98 18.88 24.54 18.45C25.09 18.03 25.75 17.66 26.46 17.77C26.63 17.8 26.84 17.86 26.94 17.99C26.7 18.12 26.44 18.19 26.2 18.32C25.88 18.49 25.63 18.72 25.37 18.97L31.02 20.49C30.82 20.62 30.59 20.81 30.36 20.87L30.29 20.89L24.82 19.86C24.45 20.69 24.2 21.47 24.56 22.36C25.13 23.8 27.05 24.88 28.42 25.42L28.58 25.48Z" fill="#FEFEFE" fill-opacity="1.000000" fill-rule="nonzero"/>
	<path id="Vector" d="M51.09 12.48L50.43 12.09C51.22 10.74 52.32 9.52 53.27 8.28L58.81 1.02L59.36 1.8L57.37 4.39L54.29 8.42L51.96 11.4C51.67 11.76 51.4 12.15 51.09 12.48Z" fill="#FEFEFE" fill-opacity="1.000000" fill-rule="nonzero"/>
	<path id="Vector" d="M30.41 10.39L30.52 10.38C30.56 10.5 30.71 10.98 30.69 11.08C30.67 11.15 30.44 11.37 30.38 11.43L29.07 12.8C28.89 12.97 28.29 13.4 28.24 13.6C28.32 13.71 28.37 13.78 28.49 13.84C28.76 13.7 29 13.45 29.22 13.24C29.78 12.73 30.31 12.18 30.81 11.6L30.98 13.36C30.99 13.5 31.06 13.78 31.03 13.91C31.02 13.95 30.9 14.08 30.87 14.12L30.39 14.77C30 15.28 29.48 15.97 28.93 16.31C28.41 16.63 27.67 16.84 27.07 16.92C26.71 16.52 26.39 16.11 26.11 15.65L27.44 15.32C27.78 15.23 28.27 15.11 28.55 14.9C28.65 14.82 28.66 14.82 28.68 14.7C28.51 14.65 28.33 14.73 28.16 14.77L27.05 15.02C26.63 15.09 26.22 15.14 25.8 15.17L25.16 14.25C26.21 13.89 27.26 13.72 28.26 13.22L24.98 13.75C24.73 13.19 24.56 12.64 24.46 12.03C25.16 11.93 25.86 11.73 26.54 11.56C27.85 11.23 29.14 10.86 30.41 10.39Z" fill="#FEFEFE" fill-opacity="1.000000" fill-rule="nonzero"/>
	<path id="Vector" d="M59.36 1.8C59.9 2.83 60 4.43 59.83 5.57C59.44 6.13 58.95 6.64 58.5 7.16L56.17 9.87L53.67 12.88C53.26 13.38 52.87 13.92 52.42 14.4C52.14 13.73 51.74 12.88 51.09 12.48C51.4 12.15 51.67 11.76 51.96 11.4L54.29 8.42L57.37 4.39L59.36 1.8Z" fill="#FBCA57" fill-opacity="1.000000" fill-rule="nonzero"/>
	<path id="Vector" d="M33.61 51.33L32.61 54.07L31.67 54.09C32.16 52.59 32.68 51.02 33.32 49.58C33.61 48.93 33.98 48.32 34.31 47.68C34.53 47.59 34.77 47.54 34.99 47.45C35.76 47.13 36.46 46.76 37.17 46.33C38.62 48.43 40.29 50.24 42.14 51.99L43.5 53.23C43.77 53.47 44.06 53.69 44.31 53.95L43.29 53.95C43.25 53.95 43.03 53.96 43 53.94C42.83 53.84 42.63 53.58 42.47 53.44L40.08 51.35L33.61 51.33Z" fill="#FEFEFE" fill-opacity="1.000000" fill-rule="nonzero"/>
	<path id="Vector" d="M34.74 48.92C34.82 48.8 34.91 48.64 35.03 48.55C35.26 48.38 35.58 48.31 35.84 48.19C36.2 48.01 36.52 47.75 36.83 47.5L37.96 48.96L34.74 48.92Z" fill="#FBCA57" fill-opacity="1.000000" fill-rule="nonzero"/>
	<path id="Vector" d="M34.74 48.92L37.96 48.96L40.08 51.35L33.61 51.33L34.74 48.92Z" fill="#EC7A3B" fill-opacity="1.000000" fill-rule="nonzero"/>
	<path id="Vector" d="M44.65 17C45.24 17.58 45.62 18.22 45.9 19C45.02 19.78 44.03 20.42 43.08 21.1L37.72 24.79C37.53 24.91 37.15 25.21 36.94 25.27C36.79 25.3 36.55 25.27 36.39 25.27L35.15 25.27L29.3 25.2L29.26 25.17C29.22 23.59 29.87 22.41 30.79 21.17L33.23 21.54C33.65 21.6 34.06 21.67 34.48 21.67L33.93 22.99C34.24 22.65 34.45 22.2 34.77 21.89C36.2 21.57 37.46 20.91 38.76 20.25L42.84 18.07C43.44 17.72 44.02 17.3 44.65 17Z" fill="#F14749" fill-opacity="1.000000" fill-rule="nonzero"/>
	<path id="Vector" d="M24.28 25.78C25.74 28.35 27.12 30.93 28.91 33.3C29.42 33.98 29.94 34.65 30.51 35.28L31.53 36.35C31.68 36.52 31.89 36.69 32 36.89C31.21 37.72 30.48 38.56 29.82 39.5L29.15 40.54C29.03 40.73 28.92 40.96 28.76 41.12C28.18 41.02 27.56 40.92 27.03 41.28L26.89 41.38C26.27 42.01 26.06 42.71 25.82 43.53L25.27 45.85L25.15 37.11C25.1 36.73 25.12 36.31 25.12 35.92L25.1 33.85C25.09 33.57 25.15 33.08 25.03 32.83L24.36 49.17L23.35 49.41L23.2 37.45L23.16 33.73C23.15 32.9 23.17 32.06 23.07 31.24C22.99 31.81 23 32.39 22.99 32.96L22.93 36.55L22.8 49.49L21.36 49.82L21.12 30.64C20.85 31.05 20.79 48.11 20.78 49.94L19.4 50.36L19.11 32.02C18.94 33.63 18.96 35.26 18.93 36.87L18.81 46.13L18.79 49.1C18.79 49.57 18.85 50.12 18.78 50.57L18.15 50.86C17.78 50.16 17.51 49.38 17.26 48.63C16.28 45.68 15.96 42.51 16.36 39.43C16.88 35.42 18.46 31.68 21.14 28.64C22.08 27.58 23.16 26.64 24.28 25.78Z" fill="url(#paint_linear_9_836_0)" fill-opacity="1.000000" fill-rule="nonzero"/>
</svg>
