<svg width="20.000000" height="20.000000" viewBox="0 0 20 20" fill="none" xmlns="http://www.w3.org/2000/svg" xmlns:xlink="http://www.w3.org/1999/xlink">
	<desc>
			Created with Pixso.
	</desc>
	<defs>
		<clipPath id="clip2_50">
			<rect id="dollar 1" rx="0.000000" width="19.000000" height="19.000000" transform="translate(0.500000 0.500000)" fill="white" fill-opacity="0"/>
		</clipPath>
	</defs>
	<rect id="dollar 1" rx="0.000000" width="19.000000" height="19.000000" transform="translate(0.500000 0.500000)" fill="#FFFFFF" fill-opacity="0"/>
	<g clip-path="url(#clip2_50)">
		<path id="Vector" d="M19.57 10C19.57 15.52 15.28 20 10 20C4.71 20 0.42 15.52 0.42 10C0.42 4.47 4.71 0 10 0C15.28 0 19.57 4.47 19.57 10Z" fill="#E88102" fill-opacity="1.000000" fill-rule="evenodd"/>
		<path id="Vector" d="M19.47 9.47C19.47 14.7 15.23 18.94 10 18.94C4.76 18.94 0.52 14.7 0.52 9.47C0.52 4.24 4.76 0 10 0C15.23 0 19.47 4.24 19.47 9.47Z" fill="#FDD835" fill-opacity="1.000000" fill-rule="evenodd"/>
		<g opacity="0.500000">
			<path id="Vector" d="M13.78 0.78L1.31 13.25C0.89 12.29 0.63 11.25 0.55 10.16L10.69 0.02C11.78 0.1 12.82 0.36 13.78 0.78Z" fill="#FFFFFF" fill-opacity="1.000000" fill-rule="nonzero"/>
		</g>
		<g opacity="0.500000">
			<path id="Vector" d="M18.25 4.82L5.35 17.72C4.54 17.27 3.82 16.7 3.18 16.04L16.57 2.65C17.23 3.28 17.8 4.01 18.25 4.82Z" fill="#FFFFFF" fill-opacity="1.000000" fill-rule="nonzero"/>
		</g>
		<g opacity="0.500000">
			<path id="Vector" d="M16.19 2.3L2.83 15.66C2.62 15.41 2.42 15.16 2.24 14.9L15.43 1.71C15.69 1.89 15.94 2.09 16.19 2.3Z" fill="#FFFFFF" fill-opacity="1.000000" fill-rule="nonzero"/>
		</g>
		<g opacity="0.500000">
			<path id="Vector" d="M19.17 7.1L7.63 18.64C7.28 18.55 6.94 18.44 6.61 18.32L18.85 6.08C18.97 6.42 19.08 6.76 19.17 7.1Z" fill="#FFFFFF" fill-opacity="1.000000" fill-rule="nonzero"/>
		</g>
		<g opacity="0.500000">
			<path id="Vector" d="M19.47 9.47C19.47 9.53 19.47 9.6 19.46 9.66C19.36 4.52 15.16 0.39 10 0.39C4.83 0.39 0.63 4.52 0.53 9.66C0.53 9.6 0.52 9.53 0.52 9.47C0.52 4.24 4.76 0 10 0C15.23 0 19.47 4.24 19.47 9.47Z" fill="#FFFFFF" fill-opacity="1.000000" fill-rule="nonzero"/>
		</g>
		<g opacity="0.500000">
			<path id="Vector" d="M17.69 9.88C17.69 13.98 14.37 17.3 10.27 17.3C7.97 17.3 5.91 16.25 4.55 14.6C5.9 16.07 7.84 16.99 10 16.99C14.09 16.99 17.42 13.66 17.42 9.57C17.42 7.77 16.78 6.12 15.72 4.84C16.94 6.16 17.69 7.93 17.69 9.88Z" fill="#FFFFFF" fill-opacity="1.000000" fill-rule="nonzero"/>
		</g>
		<path id="Vector" d="M17.42 9.57C17.42 13.66 14.09 16.99 10 16.99C5.9 16.99 2.57 13.66 2.57 9.57C2.57 5.47 5.9 2.14 10 2.14C14.09 2.14 17.42 5.47 17.42 9.57Z" fill="#F39E09" fill-opacity="1.000000" fill-rule="evenodd"/>
		<path id="Vector" d="M15.62 4.72C14.32 3.6 12.63 2.92 10.78 2.92C6.68 2.92 3.35 6.25 3.35 10.35C3.35 12.2 4.03 13.89 5.15 15.19C3.57 13.83 2.57 11.82 2.57 9.57C2.57 5.47 5.9 2.14 10 2.14C12.24 2.14 14.26 3.14 15.62 4.72Z" fill="#E88102" fill-opacity="1.000000" fill-rule="nonzero"/>
		<path id="Bottom-2" d="M10.96 7.67C11.17 7.85 11.28 8.12 11.28 8.46L13.28 8.46L13.28 7.87C13.28 7.87 13.04 7.33 12.89 7.1C12.62 6.71 12.25 6.41 11.78 6.19C11.52 6.07 11.24 5.99 10.94 5.94L10.94 4.88L10.24 4.88L10.24 5.87C10.21 5.87 10.02 5.87 9.95 5.88L9.95 4.88L9.25 4.88L9.25 5.95C8.99 6 8.74 6.07 8.51 6.16C8.02 6.36 7.64 6.64 7.37 6.99C7.2 7.21 6.97 7.62 6.97 7.62L6.97 8.21C6.97 9.14 7.51 9.87 8.59 10.4C8.78 10.49 9 10.59 9.25 10.69L9.25 12.73C9.19 12.69 9.13 12.65 9.08 12.6C8.85 12.39 8.73 12.07 8.73 11.62L6.71 11.03L6.71 11.62C6.71 12.17 6.85 12.65 7.13 13.07C7.41 13.5 7.82 13.83 8.36 14.07C8.64 14.19 8.94 14.28 9.25 14.34L9.25 15.42L9.95 15.42L9.95 14.42C10.03 14.43 10.12 14.43 10.2 14.43L10.24 14.43L10.24 15.42L10.94 15.42L10.94 14.39C11.55 14.3 12.06 14.11 12.46 13.81C13.01 13.4 13.28 12.82 13.28 12.09L13.28 11.51C13.28 11.51 12.66 10.37 11.93 9.95C11.66 9.79 11.32 9.64 10.94 9.5L10.94 7.65C10.95 7.66 10.96 7.66 10.96 7.67ZM9.25 8.76C9.05 8.6 8.96 8.42 8.96 8.23C8.96 8 9.05 7.8 9.25 7.65L9.25 8.76ZM10.24 12.92C10.22 12.92 10.21 12.92 10.2 12.92C10.11 12.92 10.03 12.92 9.95 12.91L9.95 10.94C10.05 10.97 10.15 11.01 10.24 11.04L10.24 12.92ZM10.24 9.26C10.14 9.22 10.04 9.19 9.95 9.15L9.95 7.39C10.01 7.39 10.07 7.39 10.12 7.39C10.16 7.39 10.2 7.39 10.24 7.39L10.24 9.26ZM10.96 11.42C11.17 11.58 11.27 11.81 11.27 12.1C11.27 12.36 11.17 12.57 10.98 12.71C10.97 12.72 10.96 12.73 10.94 12.74L10.94 11.4C10.94 11.41 10.95 11.41 10.96 11.42Z" fill="#DB6704" fill-opacity="1.000000" fill-rule="nonzero"/>
		<path id="Top-2" d="M11.93 9.36C11.66 9.2 11.32 9.05 10.94 8.91L10.94 7.06C10.94 7.07 10.96 7.08 10.96 7.08C11.17 7.27 11.28 7.53 11.28 7.87L13.28 7.87C13.28 7.36 13.15 6.91 12.89 6.52C12.62 6.12 12.25 5.82 11.78 5.6C11.52 5.49 11.24 5.4 10.94 5.35L10.94 4.29L10.24 4.29L10.24 5.29C10.21 5.29 10.19 5.29 10.17 5.29C10.09 5.29 10.02 5.29 9.95 5.29L9.95 4.29L9.25 4.29L9.25 5.37C8.99 5.41 8.74 5.49 8.51 5.58C8.02 5.77 7.64 6.05 7.37 6.4C7.1 6.75 6.97 7.16 6.97 7.62C6.97 8.55 7.51 9.28 8.59 9.81C8.78 9.91 9 10 9.25 10.1L9.25 12.14C9.19 12.11 9.13 12.07 9.08 12.02C8.85 11.81 8.73 11.48 8.73 11.03L6.71 11.03C6.71 11.58 6.85 12.07 7.13 12.49C7.41 12.91 7.82 13.24 8.36 13.48C8.64 13.61 8.94 13.7 9.25 13.76L9.25 14.84L9.95 14.84L9.95 13.84C10.03 13.84 10.12 13.84 10.2 13.84L10.24 13.84L10.24 14.84L10.94 14.84L10.94 13.8C11.55 13.72 12.06 13.53 12.46 13.23C13.01 12.81 13.28 12.24 13.28 11.51C13.28 10.59 12.83 9.88 11.93 9.36ZM10.12 6.8C10.16 6.8 10.2 6.8 10.23 6.8L10.23 8.67C10.13 8.63 10.03 8.6 9.95 8.56L9.95 6.8C10 6.8 10.06 6.8 10.12 6.8ZM8.96 7.64C8.96 7.41 9.05 7.21 9.25 7.06L9.25 8.18C9.05 8.02 8.96 7.84 8.96 7.64ZM10.19 12.33C10.11 12.33 10.03 12.33 9.95 12.33L9.95 10.35C10.05 10.39 10.14 10.42 10.23 10.46L10.23 12.33C10.22 12.33 10.21 12.33 10.19 12.33ZM10.98 12.12C10.97 12.13 10.96 12.14 10.94 12.15L10.94 10.82C10.95 10.82 10.96 10.83 10.96 10.83C11.17 11 11.27 11.23 11.27 11.52C11.27 11.78 11.17 11.98 10.98 12.12Z" fill="#FDD835" fill-opacity="1.000000" fill-rule="nonzero"/>
		<g opacity="0.500000">
			<path id="Vector" d="M8.51 5.58C8.72 5.5 8.94 5.43 9.17 5.38L6.96 7.59C6.97 7.14 7.1 6.75 7.37 6.4C7.64 6.05 8.01 5.78 8.51 5.58Z" fill="#FFFFFF" fill-opacity="1.000000" fill-rule="nonzero"/>
		</g>
		<g opacity="0.500000">
			<path id="Vector" d="M9.25 4.29L9.95 4.29L9.95 4.6L9.25 5.31L9.25 4.29Z" fill="#FFFFFF" fill-opacity="1.000000" fill-rule="nonzero"/>
		</g>
		<g opacity="0.500000">
			<path id="Vector" d="M10.26 4.29L10.24 4.32L10.24 4.29L10.26 4.29Z" fill="#FFFFFF" fill-opacity="1.000000" fill-rule="nonzero"/>
		</g>
		<g opacity="0.500000">
			<path id="Vector" d="M12.88 10.19C12.66 9.87 12.34 9.6 11.93 9.36C11.66 9.2 11.32 9.05 10.94 8.91L10.94 8.28L9.16 10.07C9.18 10.08 9.21 10.09 9.25 10.1L9.25 12.14C9.18 12.11 9.12 12.07 9.07 12.02C8.84 11.81 8.72 11.48 8.72 11.03L8.19 11.03L6.98 12.24C7.02 12.33 7.07 12.41 7.12 12.49C7.4 12.91 7.81 13.24 8.35 13.48C8.63 13.6 8.93 13.7 9.24 13.76L9.24 13.82L10.93 12.13L10.93 10.82C10.94 10.82 10.95 10.83 10.95 10.83C11.16 11 11.26 11.23 11.26 11.52C11.26 11.66 11.24 11.78 11.18 11.88L12.88 10.19ZM10.24 12.33C10.22 12.33 10.21 12.33 10.2 12.33C10.11 12.33 10.03 12.33 9.95 12.33L9.95 10.35C10.05 10.39 10.15 10.42 10.24 10.46L10.24 12.33Z" fill="#FFFFFF" fill-opacity="1.000000" fill-rule="nonzero"/>
		</g>
		<g opacity="0.500000">
			<path id="Vector" d="M13.28 7.87L11.35 7.87L12.81 6.41C12.83 6.45 12.86 6.48 12.88 6.52C13.15 6.91 13.28 7.36 13.28 7.87Z" fill="#FFFFFF" fill-opacity="1.000000" fill-rule="nonzero"/>
		</g>
		<g opacity="0.500000">
			<path id="Vector" d="M6.71 11.03L7.45 11.03L6.78 11.69C6.74 11.49 6.71 11.26 6.71 11.03Z" fill="#FFFFFF" fill-opacity="1.000000" fill-rule="nonzero"/>
		</g>
		<g opacity="0.500000">
			<path id="Vector" d="M9.95 7.19L9.95 8.53L8.64 9.84C8.62 9.83 8.6 9.82 8.58 9.81C8.28 9.66 8.03 9.5 7.81 9.33L9.1 8.03C9.14 8.08 9.19 8.13 9.25 8.18L9.25 7.89L9.95 7.19Z" fill="#FFFFFF" fill-opacity="1.000000" fill-rule="nonzero"/>
		</g>
		<g opacity="0.500000">
			<path id="Vector" d="M12.45 6.03L11.16 7.33C11.11 7.23 11.04 7.16 10.96 7.08C10.96 7.08 10.94 7.07 10.94 7.07L10.94 7.55L10.23 8.25L10.23 6.91L11.6 5.54C11.66 5.56 11.72 5.58 11.78 5.61C12.03 5.72 12.26 5.86 12.45 6.03Z" fill="#FFFFFF" fill-opacity="1.000000" fill-rule="nonzero"/>
		</g>
		<g opacity="0.500000">
			<path id="Vector" d="M10.24 14.69L10.94 13.99L10.94 14.84L10.24 14.84L10.24 14.69Z" fill="#FFFFFF" fill-opacity="1.000000" fill-rule="nonzero"/>
		</g>
		<g opacity="0.500000">
			<path id="Vector" d="M13.28 11.65C13.24 12.31 12.97 12.83 12.46 13.22C12.11 13.48 11.68 13.66 11.17 13.76L13.28 11.65Z" fill="#FFFFFF" fill-opacity="1.000000" fill-rule="nonzero"/>
		</g>
		<g opacity="0.250000">
			<path id="Vector" d="M16.19 5.47C11.38 7.16 7.52 10.86 5.63 15.57C5.47 15.45 5.31 15.32 5.15 15.19C4.03 13.89 3.35 12.19 3.35 10.35C3.35 6.25 6.68 2.92 10.78 2.92C12.63 2.92 14.32 3.6 15.62 4.72C15.82 4.96 16.01 5.21 16.19 5.47Z" fill="#FFFFFF" fill-opacity="1.000000" fill-rule="nonzero"/>
		</g>
	</g>
</svg>
